# xmcd CD database file
#
# Track frame offsets:
#	150
#	18656
#	32660
#	48402
#	66506
#	89050
#	105714
#	121558
#	135652
#	155870
#	171373
#	179429
#	194301
#	211714
#
# Disc length: 3076 seconds
#
# Revision: 0
# Processed by: cddbd v1.5.2PL0 Copyright (c) Steve Scherf et al.
# Submitted via: CDex 1.70beta2
#
DISCID=c90c020e
DTITLE=Victor e Leo - Acustico
DYEAR=1900
DGENRE=Country
TTITLE0=Pista de audio 01
TTITLE1=Pista de audio 02
TTITLE2=Pista de audio 03
TTITLE3=Pista de audio 04
TTITLE4=Pista de audio 05
TTITLE5=Pista de audio 06
TTITLE6=Pista de audio 07
TTITLE7=Pista de audio 08
TTITLE8=Pista de audio 09
TTITLE9=Pista de audio 10
TTITLE10=Pista de audio 11
TTITLE11=Pista de audio 12
TTITLE12=Pista de audio 13
TTITLE13=Pista de audio 14
EXTD=
EXTT0=
EXTT1=
EXTT2=
EXTT3=
EXTT4=
EXTT5=
EXTT6=
EXTT7=
EXTT8=
EXTT9=
EXTT10=
EXTT11=
EXTT12=
EXTT13=
PLAYORDER=
